<mxfile host="Electron" modified="2023-09-19T06:18:26.426Z" agent="5.0 (Windows NT 10.0; Win64; x64) AppleWebKit/537.36 (KHTML, like Gecko) draw.io/20.3.0 Chrome/104.0.5112.114 Electron/20.1.3 Safari/537.36" etag="UId_LQqXXeJ1HHfwSp3m" compressed="false" version="20.3.0" type="device">
  <diagram name="PP003A" id="ktzcWRk09WoIoVPCdjO1">
    <mxGraphModel dx="1408" dy="963" grid="1" gridSize="2" guides="1" tooltips="1" connect="1" arrows="1" fold="1" page="1" pageScale="1" pageWidth="1169" pageHeight="827" math="0" shadow="0">
      <root>
        <mxCell id="jJQzU4BoMoTkraNRytwX-0" />
        <mxCell id="jJQzU4BoMoTkraNRytwX-124" value="Connection" style="" parent="jJQzU4BoMoTkraNRytwX-0" />
        <object label="Connection" PipingConnector="Y" LabelConnector="N" SignalConnector="N" Direction="180" id="jJQzU4BoMoTkraNRytwX-125">
          <mxCell style="vsdxID=1407;fillColor=none;gradientColor=none;shape=stencil(rVFbDsIgEDwNnyQU4glqvcfGblsilmZBS28vZGMsxg9j/JvZmX1kR5g2TLCg0CpE8hdcbR8nYY5CaztPSDZmJEwnTDt4wpH8be6ZL1CcBV39vUxI3KdKh1YbswPTEzuBzlmiVGmKau9zUKM+jlJJQrJBko8QrZ+rrQ5oRJnXyMHBWElhRVx25ebnw/5zVvPFWRm83jxY5zilvf4eSy5xpKZ7AA==);strokeColor=#00FF00;strokeWidth=1;points=[[0.5,0.5,0,0,0]];labelBackgroundColor=none;rounded=0;html=1;whiteSpace=wrap;aspect=fixed;noLabel=1;snapToPoint=1;container=0;fontSize=16;" parent="jJQzU4BoMoTkraNRytwX-124" vertex="1">
            <mxGeometry x="234" y="218" width="12" height="12" as="geometry" />
          </mxCell>
        </object>
        <object label="Connection" PipingConnector="Y" LabelConnector="N" SignalConnector="N" Direction="90" id="WmMu_xjI6wHRPddwixqc-0">
          <mxCell style="vsdxID=1407;fillColor=none;gradientColor=none;shape=stencil(rVFbDsIgEDwNnyQU4glqvcfGblsilmZBS28vZGMsxg9j/JvZmX1kR5g2TLCg0CpE8hdcbR8nYY5CaztPSDZmJEwnTDt4wpH8be6ZL1CcBV39vUxI3KdKh1YbswPTEzuBzlmiVGmKau9zUKM+jlJJQrJBko8QrZ+rrQ5oRJnXyMHBWElhRVx25ebnw/5zVvPFWRm83jxY5zilvf4eSy5xpKZ7AA==);strokeColor=#00FF00;strokeWidth=1;points=[[0.5,0.5,0,0,0]];labelBackgroundColor=none;rounded=0;html=1;whiteSpace=wrap;aspect=fixed;noLabel=1;snapToPoint=1;container=0;fontSize=16;" parent="jJQzU4BoMoTkraNRytwX-124" vertex="1">
            <mxGeometry x="362" y="90" width="12" height="12" as="geometry" />
          </mxCell>
        </object>
        <mxCell id="jJQzU4BoMoTkraNRytwX-135" value="Label" style="" parent="jJQzU4BoMoTkraNRytwX-0" />
        <object label="%LabelIndex%&amp;nbsp; &amp;nbsp;" placeholders="1" LabelLines="2" LabelIndex="A" id="M6TbfDA0osozqwhu_GgR-0">
          <mxCell style="rounded=0;whiteSpace=wrap;html=1;fillColor=none;strokeColor=#FF0000;fontColor=#FF0000;fontSize=10;align=center;container=0;" parent="jJQzU4BoMoTkraNRytwX-135" vertex="1">
            <mxGeometry x="330" y="400" width="80" height="16" as="geometry" />
          </mxCell>
        </object>
        <object label="&lt;span style=&quot;color: rgb(255, 0, 0); font-size: 10px; text-align: left;&quot;&gt;%LabelLines%&lt;/span&gt;" placeholders="1" LabelLines="1" id="M6TbfDA0osozqwhu_GgR-1">
          <mxCell style="text;html=1;strokeColor=none;fillColor=none;align=center;verticalAlign=middle;whiteSpace=wrap;rounded=0;fontSize=10;container=0;" parent="jJQzU4BoMoTkraNRytwX-135" vertex="1">
            <mxGeometry x="330" y="400" width="10" height="10" as="geometry" />
          </mxCell>
        </object>
        <mxCell id="jJQzU4BoMoTkraNRytwX-136" value="Origo" style="locked=1;" parent="jJQzU4BoMoTkraNRytwX-0" />
        <object label="origo" id="jJQzU4BoMoTkraNRytwX-137">
          <mxCell style="vsdxID=1407;fillColor=none;gradientColor=none;shape=stencil(rVFbDsIgEDwNnyQU4glqvcfGblsilmZBS28vZGMsxg9j/JvZmX1kR5g2TLCg0CpE8hdcbR8nYY5CaztPSDZmJEwnTDt4wpH8be6ZL1CcBV39vUxI3KdKh1YbswPTEzuBzlmiVGmKau9zUKM+jlJJQrJBko8QrZ+rrQ5oRJnXyMHBWElhRVx25ebnw/5zVvPFWRm83jxY5zilvf4eSy5xpKZ7AA==);strokeColor=#ff0000;strokeWidth=1;points=[[0.5,0.5,0,0,0]];labelBackgroundColor=none;rounded=0;html=1;whiteSpace=wrap;aspect=fixed;noLabel=1;snapToPoint=1;" parent="jJQzU4BoMoTkraNRytwX-136" vertex="1">
            <mxGeometry x="364" y="220" width="8" height="8" as="geometry" />
          </mxCell>
        </object>
        <object label="Symbol" Width="16" Height="18" UoM="mm" id="jJQzU4BoMoTkraNRytwX-138">
          <mxCell style="locked=1;" parent="jJQzU4BoMoTkraNRytwX-0" />
        </object>
        <mxCell id="yW8LbLtKJexEcO62kJz7-2" value="" style="ellipse;whiteSpace=wrap;html=1;aspect=fixed;fillColor=none;" parent="jJQzU4BoMoTkraNRytwX-138" vertex="1">
          <mxGeometry x="240" y="96" width="256" height="256" as="geometry" />
        </mxCell>
        <mxCell id="SMwHsykcH-rovEfNC54i-0" value="" style="endArrow=none;html=1;rounded=0;" parent="jJQzU4BoMoTkraNRytwX-138" edge="1">
          <mxGeometry width="50" height="50" relative="1" as="geometry">
            <mxPoint x="240" y="384" as="sourcePoint" />
            <mxPoint x="496" y="384" as="targetPoint" />
          </mxGeometry>
        </mxCell>
        <mxCell id="SMwHsykcH-rovEfNC54i-1" value="" style="endArrow=none;html=1;rounded=0;entryX=0;entryY=1;entryDx=0;entryDy=0;" parent="jJQzU4BoMoTkraNRytwX-138" target="yW8LbLtKJexEcO62kJz7-2" edge="1">
          <mxGeometry width="50" height="50" relative="1" as="geometry">
            <mxPoint x="240" y="384" as="sourcePoint" />
            <mxPoint x="608" y="374" as="targetPoint" />
          </mxGeometry>
        </mxCell>
        <mxCell id="SMwHsykcH-rovEfNC54i-2" value="" style="endArrow=none;html=1;rounded=0;entryX=1;entryY=1;entryDx=0;entryDy=0;" parent="jJQzU4BoMoTkraNRytwX-138" target="yW8LbLtKJexEcO62kJz7-2" edge="1">
          <mxGeometry width="50" height="50" relative="1" as="geometry">
            <mxPoint x="496" y="384" as="sourcePoint" />
            <mxPoint x="608" y="374" as="targetPoint" />
          </mxGeometry>
        </mxCell>
        <mxCell id="24SD1WiaJDib_HkMoF_u-0" value="" style="ellipse;whiteSpace=wrap;html=1;aspect=fixed;fillColor=none;" parent="jJQzU4BoMoTkraNRytwX-138" vertex="1">
          <mxGeometry x="304" y="96" width="128" height="128" as="geometry" />
        </mxCell>
        <mxCell id="24SD1WiaJDib_HkMoF_u-1" value="" style="ellipse;whiteSpace=wrap;html=1;aspect=fixed;fillColor=none;" parent="jJQzU4BoMoTkraNRytwX-138" vertex="1">
          <mxGeometry x="304" y="224" width="128" height="128" as="geometry" />
        </mxCell>
      </root>
    </mxGraphModel>
  </diagram>
</mxfile>
